<?xml version="1.0" encoding="utf-8" standalone="no"?>
<!DOCTYPE svg PUBLIC "-//W3C//DTD SVG 1.1//EN"
  "http://www.w3.org/Graphics/SVG/1.1/DTD/svg11.dtd">
<svg xmlns:xlink="http://www.w3.org/1999/xlink" width="720pt" height="540pt" viewBox="0 0 720 540" xmlns="http://www.w3.org/2000/svg" version="1.1">
 <metadata>
  <rdf:RDF xmlns:dc="http://purl.org/dc/elements/1.1/" xmlns:cc="http://creativecommons.org/ns#" xmlns:rdf="http://www.w3.org/1999/02/22-rdf-syntax-ns#">
   <cc:Work>
    <dc:type rdf:resource="http://purl.org/dc/dcmitype/StillImage"/>
    <dc:date>2023-12-08T14:57:54.312178</dc:date>
    <dc:format>image/svg+xml</dc:format>
    <dc:creator>
     <cc:Agent>
      <dc:title>Matplotlib v3.7.1, https://matplotlib.org/</dc:title>
     </cc:Agent>
    </dc:creator>
   </cc:Work>
  </rdf:RDF>
 </metadata>
 <defs>
  <style type="text/css">*{stroke-linejoin: round; stroke-linecap: butt}</style>
 </defs>
 <g id="figure_1">
  <g id="patch_1">
   <path d="M 0 540 
L 720 540 
L 720 0 
L 0 0 
z
" style="fill: #ffffff; stroke: #ffffff; stroke-linejoin: miter"/>
  </g>
  <g id="axes_1">
   <g id="patch_2">
    <path d="M 114.29375 387.077886 
L 579.2725 387.077886 
L 579.2725 21.6 
L 114.29375 21.6 
z
" style="fill: #ffffff"/>
   </g>
   <g id="matplotlib.axis_1">
    <g id="xtick_1">
     <g id="line2d_1">
      <path d="M 148.316585 387.077886 
" style="fill: none; stroke: #000000; stroke-width: 1.5"/>
      <defs>
       <path id="m88f4291155" d="M 0 0 
L 0 2.75 
" style="stroke: #333333"/>
      </defs>
      <g>
       <use xlink:href="#m88f4291155" x="148.316585" y="387.077886" style="stroke: #333333"/>
      </g>
     </g>
     <g id="text_1">
      <!-- Not Jct -->
      <g style="fill: #4d4d4d" transform="translate(94.974218 452.919702) rotate(-45) scale(0.2 -0.2)">
       <defs>
        <path id="Montserrat-Regular-4e" d="M 730 0 
L 730 4480 
L 1120 4480 
L 4211 589 
L 4006 589 
L 4006 4480 
L 4474 4480 
L 4474 0 
L 4083 0 
L 998 3891 
L 1203 3891 
L 1203 0 
L 730 0 
z
" transform="scale(0.015625)"/>
        <path id="Montserrat-Regular-6f" d="M 2003 -32 
Q 1517 -32 1129 189 
Q 742 410 518 797 
Q 294 1184 294 1683 
Q 294 2189 518 2573 
Q 742 2957 1126 3174 
Q 1510 3392 2003 3392 
Q 2502 3392 2889 3174 
Q 3277 2957 3497 2573 
Q 3718 2189 3718 1683 
Q 3718 1184 3497 797 
Q 3277 410 2886 189 
Q 2496 -32 2003 -32 
z
M 2003 371 
Q 2368 371 2649 534 
Q 2931 698 3094 995 
Q 3258 1293 3258 1683 
Q 3258 2080 3094 2374 
Q 2931 2669 2649 2832 
Q 2368 2995 2010 2995 
Q 1651 2995 1369 2832 
Q 1088 2669 921 2374 
Q 755 2080 755 1683 
Q 755 1293 921 995 
Q 1088 698 1369 534 
Q 1651 371 2003 371 
z
" transform="scale(0.015625)"/>
        <path id="Montserrat-Regular-74" d="M 1696 -32 
Q 1222 -32 966 224 
Q 710 480 710 947 
L 710 4102 
L 1165 4102 
L 1165 973 
Q 1165 678 1315 518 
Q 1466 358 1747 358 
Q 2048 358 2246 531 
L 2406 205 
Q 2272 83 2083 25 
Q 1894 -32 1696 -32 
z
M 109 2982 
L 109 3360 
L 2189 3360 
L 2189 2982 
L 109 2982 
z
" transform="scale(0.015625)"/>
        <path id="Montserrat-Regular-20" transform="scale(0.015625)"/>
        <path id="Montserrat-Regular-4a" d="M 1210 -38 
Q 832 -38 502 128 
Q 173 294 -26 602 
L 250 922 
Q 435 653 678 512 
Q 922 371 1216 371 
Q 2048 371 2048 1357 
L 2048 4070 
L 410 4070 
L 410 4480 
L 2515 4480 
L 2515 1376 
Q 2515 666 2185 314 
Q 1856 -38 1210 -38 
z
" transform="scale(0.015625)"/>
        <path id="Montserrat-Regular-63" d="M 2029 -32 
Q 1530 -32 1136 189 
Q 742 410 518 797 
Q 294 1184 294 1683 
Q 294 2189 518 2573 
Q 742 2957 1136 3174 
Q 1530 3392 2029 3392 
Q 2458 3392 2803 3225 
Q 3149 3059 3347 2726 
L 3008 2496 
Q 2835 2752 2579 2873 
Q 2323 2995 2022 2995 
Q 1664 2995 1376 2832 
Q 1088 2669 921 2374 
Q 755 2080 755 1683 
Q 755 1286 921 992 
Q 1088 698 1376 534 
Q 1664 371 2022 371 
Q 2323 371 2579 492 
Q 2835 614 3008 864 
L 3347 634 
Q 3149 307 2803 137 
Q 2458 -32 2029 -32 
z
" transform="scale(0.015625)"/>
       </defs>
       <use xlink:href="#Montserrat-Regular-4e"/>
       <use xlink:href="#Montserrat-Regular-6f" x="81.299988"/>
       <use xlink:href="#Montserrat-Regular-74" x="143.999985"/>
       <use xlink:href="#Montserrat-Regular-20" x="184.599976"/>
       <use xlink:href="#Montserrat-Regular-4a" x="210.799973"/>
       <use xlink:href="#Montserrat-Regular-63" x="260.899963"/>
       <use xlink:href="#Montserrat-Regular-74" x="317.199951"/>
      </g>
     </g>
    </g>
    <g id="xtick_2">
     <g id="line2d_2">
      <path d="M 205.021311 387.077886 
" style="fill: none; stroke: #000000; stroke-width: 1.5"/>
      <g>
       <use xlink:href="#m88f4291155" x="205.021311" y="387.077886" style="stroke: #333333"/>
      </g>
     </g>
     <g id="text_2">
      <!-- T/Staggered Jct -->
      <g style="fill: #4d4d4d" transform="translate(90.357317 515.584831) rotate(-45) scale(0.2 -0.2)">
       <defs>
        <path id="Montserrat-Regular-54" d="M 1600 0 
L 1600 4070 
L 26 4070 
L 26 4480 
L 3648 4480 
L 3648 4070 
L 2074 4070 
L 2074 0 
L 1600 0 
z
" transform="scale(0.015625)"/>
        <path id="Montserrat-Regular-2f" d="M -160 -640 
L 1952 5389 
L 2368 5389 
L 256 -640 
L -160 -640 
z
" transform="scale(0.015625)"/>
        <path id="Montserrat-Regular-53" d="M 1965 -38 
Q 1466 -38 1008 125 
Q 550 288 301 544 
L 486 909 
Q 723 678 1123 521 
Q 1523 365 1965 365 
Q 2387 365 2652 470 
Q 2918 576 3043 755 
Q 3168 934 3168 1152 
Q 3168 1414 3017 1574 
Q 2867 1734 2624 1827 
Q 2381 1920 2086 1990 
Q 1792 2061 1497 2141 
Q 1203 2221 956 2355 
Q 710 2490 560 2710 
Q 410 2931 410 3290 
Q 410 3622 586 3900 
Q 762 4179 1126 4348 
Q 1491 4518 2061 4518 
Q 2438 4518 2809 4412 
Q 3181 4307 3450 4122 
L 3290 3744 
Q 3002 3936 2678 4025 
Q 2355 4115 2054 4115 
Q 1651 4115 1388 4006 
Q 1126 3898 1001 3715 
Q 877 3533 877 3302 
Q 877 3040 1027 2880 
Q 1178 2720 1424 2630 
Q 1670 2541 1964 2470 
Q 2259 2400 2550 2317 
Q 2842 2234 3088 2102 
Q 3334 1971 3484 1753 
Q 3635 1536 3635 1184 
Q 3635 858 3456 579 
Q 3277 301 2909 131 
Q 2541 -38 1965 -38 
z
" transform="scale(0.015625)"/>
        <path id="Montserrat-Regular-61" d="M 2739 0 
L 2739 742 
L 2720 864 
L 2720 2106 
Q 2720 2534 2480 2764 
Q 2240 2995 1766 2995 
Q 1440 2995 1145 2886 
Q 851 2778 646 2598 
L 442 2938 
Q 698 3155 1056 3273 
Q 1414 3392 1811 3392 
Q 2464 3392 2819 3069 
Q 3174 2746 3174 2086 
L 3174 0 
L 2739 0 
z
M 1581 -32 
Q 1203 -32 924 93 
Q 646 218 499 438 
Q 352 659 352 947 
Q 352 1210 477 1424 
Q 602 1638 886 1769 
Q 1171 1901 1651 1901 
L 2810 1901 
L 2810 1562 
L 1664 1562 
Q 1178 1562 989 1389 
Q 800 1216 800 960 
Q 800 672 1024 499 
Q 1248 326 1651 326 
Q 2035 326 2313 502 
Q 2592 678 2720 1011 
L 2822 698 
Q 2694 365 2377 166 
Q 2061 -32 1581 -32 
z
" transform="scale(0.015625)"/>
        <path id="Montserrat-Regular-67" d="M 2067 -1274 
Q 1606 -1274 1184 -1139 
Q 762 -1005 499 -755 
L 730 -410 
Q 966 -621 1315 -745 
Q 1664 -870 2054 -870 
Q 2694 -870 2995 -572 
Q 3296 -275 3296 352 
L 3296 1190 
L 3360 1766 
L 3315 2342 
L 3315 3360 
L 3750 3360 
L 3750 410 
Q 3750 -461 3324 -867 
Q 2899 -1274 2067 -1274 
z
M 1984 128 
Q 1504 128 1120 336 
Q 736 544 515 915 
Q 294 1286 294 1766 
Q 294 2246 515 2614 
Q 736 2982 1120 3187 
Q 1504 3392 1984 3392 
Q 2432 3392 2790 3206 
Q 3149 3021 3360 2656 
Q 3571 2291 3571 1766 
Q 3571 1242 3360 877 
Q 3149 512 2790 320 
Q 2432 128 1984 128 
z
M 2029 531 
Q 2400 531 2688 688 
Q 2976 845 3142 1123 
Q 3309 1402 3309 1766 
Q 3309 2131 3142 2406 
Q 2976 2682 2688 2838 
Q 2400 2995 2029 2995 
Q 1664 2995 1373 2838 
Q 1082 2682 918 2406 
Q 755 2131 755 1766 
Q 755 1402 918 1123 
Q 1082 845 1373 688 
Q 1664 531 2029 531 
z
" transform="scale(0.015625)"/>
        <path id="Montserrat-Regular-65" d="M 2061 -32 
Q 1536 -32 1139 189 
Q 742 410 518 797 
Q 294 1184 294 1683 
Q 294 2182 508 2566 
Q 723 2950 1097 3171 
Q 1472 3392 1939 3392 
Q 2413 3392 2781 3177 
Q 3149 2963 3360 2576 
Q 3571 2189 3571 1683 
Q 3571 1651 3568 1616 
Q 3565 1581 3565 1542 
L 640 1542 
L 640 1882 
L 3322 1882 
L 3142 1747 
Q 3142 2112 2985 2397 
Q 2829 2682 2560 2842 
Q 2291 3002 1939 3002 
Q 1594 3002 1318 2842 
Q 1043 2682 889 2394 
Q 736 2106 736 1734 
L 736 1664 
Q 736 1280 905 989 
Q 1075 698 1379 534 
Q 1683 371 2074 371 
Q 2381 371 2646 480 
Q 2912 589 3104 813 
L 3360 518 
Q 3136 250 2800 109 
Q 2464 -32 2061 -32 
z
" transform="scale(0.015625)"/>
        <path id="Montserrat-Regular-72" d="M 634 0 
L 634 3360 
L 1069 3360 
L 1069 2445 
L 1024 2605 
Q 1165 2989 1497 3190 
Q 1830 3392 2323 3392 
L 2323 2950 
Q 2298 2950 2272 2953 
Q 2246 2957 2221 2957 
Q 1690 2957 1389 2633 
Q 1088 2310 1088 1715 
L 1088 0 
L 634 0 
z
" transform="scale(0.015625)"/>
        <path id="Montserrat-Regular-64" d="M 1971 -32 
Q 1491 -32 1110 185 
Q 730 403 512 790 
Q 294 1178 294 1683 
Q 294 2195 512 2579 
Q 730 2963 1110 3177 
Q 1491 3392 1971 3392 
Q 2413 3392 2761 3193 
Q 3110 2995 3318 2614 
Q 3526 2234 3526 1683 
Q 3526 1139 3321 755 
Q 3117 371 2768 169 
Q 2419 -32 1971 -32 
z
M 2003 371 
Q 2362 371 2646 534 
Q 2931 698 3094 995 
Q 3258 1293 3258 1683 
Q 3258 2080 3094 2374 
Q 2931 2669 2646 2832 
Q 2362 2995 2003 2995 
Q 1651 2995 1369 2832 
Q 1088 2669 921 2374 
Q 755 2080 755 1683 
Q 755 1293 921 995 
Q 1088 698 1369 534 
Q 1651 371 2003 371 
z
M 3270 0 
L 3270 1011 
L 3315 1690 
L 3251 2368 
L 3251 4749 
L 3706 4749 
L 3706 0 
L 3270 0 
z
" transform="scale(0.015625)"/>
       </defs>
       <use xlink:href="#Montserrat-Regular-54"/>
       <use xlink:href="#Montserrat-Regular-2f" x="57.399994"/>
       <use xlink:href="#Montserrat-Regular-53" x="90.899979"/>
       <use xlink:href="#Montserrat-Regular-74" x="152.399963"/>
       <use xlink:href="#Montserrat-Regular-61" x="192.999954"/>
       <use xlink:href="#Montserrat-Regular-67" x="251.999939"/>
       <use xlink:href="#Montserrat-Regular-67" x="320.499924"/>
       <use xlink:href="#Montserrat-Regular-65" x="388.999908"/>
       <use xlink:href="#Montserrat-Regular-72" x="449.399902"/>
       <use xlink:href="#Montserrat-Regular-65" x="489.499893"/>
       <use xlink:href="#Montserrat-Regular-64" x="549.899887"/>
       <use xlink:href="#Montserrat-Regular-20" x="617.699875"/>
       <use xlink:href="#Montserrat-Regular-4a" x="643.899872"/>
       <use xlink:href="#Montserrat-Regular-63" x="693.999863"/>
       <use xlink:href="#Montserrat-Regular-74" x="750.29985"/>
      </g>
     </g>
    </g>
    <g id="xtick_3">
     <g id="line2d_3">
      <path d="M 261.726037 387.077886 
" style="fill: none; stroke: #000000; stroke-width: 1.5"/>
      <g>
       <use xlink:href="#m88f4291155" x="261.726037" y="387.077886" style="stroke: #333333"/>
      </g>
     </g>
     <g id="text_3">
      <!-- Crossroads -->
      <g style="fill: #4d4d4d" transform="translate(181.102605 480.200766) rotate(-45) scale(0.2 -0.2)">
       <defs>
        <path id="Montserrat-Regular-43" d="M 2675 -38 
Q 2170 -38 1741 131 
Q 1312 301 998 608 
Q 685 915 509 1331 
Q 333 1747 333 2240 
Q 333 2733 509 3149 
Q 685 3565 1001 3872 
Q 1318 4179 1747 4348 
Q 2176 4518 2682 4518 
Q 3168 4518 3597 4355 
Q 4026 4192 4320 3866 
L 4019 3565 
Q 3744 3846 3411 3971 
Q 3078 4096 2694 4096 
Q 2291 4096 1945 3958 
Q 1600 3821 1344 3568 
Q 1088 3315 944 2979 
Q 800 2643 800 2240 
Q 800 1837 944 1501 
Q 1088 1165 1344 912 
Q 1600 659 1945 521 
Q 2291 384 2694 384 
Q 3078 384 3411 512 
Q 3744 640 4019 922 
L 4320 621 
Q 4026 294 3597 128 
Q 3168 -38 2675 -38 
z
" transform="scale(0.015625)"/>
        <path id="Montserrat-Regular-73" d="M 1536 -32 
Q 1120 -32 749 86 
Q 378 205 166 384 
L 371 742 
Q 576 589 896 477 
Q 1216 365 1568 365 
Q 2048 365 2259 515 
Q 2470 666 2470 915 
Q 2470 1101 2352 1206 
Q 2234 1312 2042 1366 
Q 1850 1421 1613 1459 
Q 1376 1498 1142 1549 
Q 909 1600 717 1699 
Q 525 1798 406 1971 
Q 288 2144 288 2432 
Q 288 2707 441 2924 
Q 595 3142 892 3267 
Q 1190 3392 1619 3392 
Q 1946 3392 2272 3305 
Q 2598 3219 2810 3078 
L 2611 2714 
Q 2387 2867 2131 2934 
Q 1875 3002 1619 3002 
Q 1165 3002 950 2845 
Q 736 2688 736 2445 
Q 736 2253 854 2144 
Q 973 2035 1168 1974 
Q 1363 1914 1596 1875 
Q 1830 1837 2064 1782 
Q 2298 1728 2493 1635 
Q 2688 1542 2806 1372 
Q 2925 1203 2925 928 
Q 2925 634 2761 419 
Q 2598 205 2288 86 
Q 1978 -32 1536 -32 
z
" transform="scale(0.015625)"/>
       </defs>
       <use xlink:href="#Montserrat-Regular-43"/>
       <use xlink:href="#Montserrat-Regular-72" x="71.899994"/>
       <use xlink:href="#Montserrat-Regular-6f" x="111.999985"/>
       <use xlink:href="#Montserrat-Regular-73" x="174.699982"/>
       <use xlink:href="#Montserrat-Regular-73" x="223.499969"/>
       <use xlink:href="#Montserrat-Regular-72" x="272.299957"/>
       <use xlink:href="#Montserrat-Regular-6f" x="312.399948"/>
       <use xlink:href="#Montserrat-Regular-61" x="375.099945"/>
       <use xlink:href="#Montserrat-Regular-64" x="434.09993"/>
       <use xlink:href="#Montserrat-Regular-73" x="501.899918"/>
      </g>
     </g>
    </g>
    <g id="xtick_4">
     <g id="line2d_4">
      <path d="M 318.430762 387.077886 
" style="fill: none; stroke: #000000; stroke-width: 1.5"/>
      <g>
       <use xlink:href="#m88f4291155" x="318.430762" y="387.077886" style="stroke: #333333"/>
      </g>
     </g>
     <g id="text_4">
      <!-- Roundabout -->
      <g style="fill: #4d4d4d" transform="translate(225.899211 492.108886) rotate(-45) scale(0.2 -0.2)">
       <defs>
        <path id="Montserrat-Regular-52" d="M 730 0 
L 730 4480 
L 2406 4480 
Q 2976 4480 3385 4297 
Q 3795 4115 4016 3772 
Q 4237 3430 4237 2944 
Q 4237 2470 4016 2128 
Q 3795 1786 3385 1603 
Q 2976 1421 2406 1421 
L 992 1421 
L 1203 1638 
L 1203 0 
L 730 0 
z
M 3789 0 
L 2637 1626 
L 3149 1626 
L 4307 0 
L 3789 0 
z
M 1203 1600 
L 992 1824 
L 2394 1824 
Q 3066 1824 3414 2118 
Q 3763 2413 3763 2944 
Q 3763 3482 3414 3776 
Q 3066 4070 2394 4070 
L 992 4070 
L 1203 4294 
L 1203 1600 
z
" transform="scale(0.015625)"/>
        <path id="Montserrat-Regular-75" d="M 2022 -32 
Q 1594 -32 1274 128 
Q 954 288 778 608 
Q 602 928 602 1408 
L 602 3360 
L 1056 3360 
L 1056 1459 
Q 1056 922 1321 650 
Q 1587 378 2067 378 
Q 2419 378 2678 522 
Q 2938 666 3075 941 
Q 3213 1216 3213 1600 
L 3213 3360 
L 3667 3360 
L 3667 0 
L 3232 0 
L 3232 922 
L 3302 755 
Q 3142 384 2806 176 
Q 2470 -32 2022 -32 
z
" transform="scale(0.015625)"/>
        <path id="Montserrat-Regular-6e" d="M 2349 3392 
Q 2758 3392 3068 3235 
Q 3379 3078 3555 2758 
Q 3731 2438 3731 1952 
L 3731 0 
L 3277 0 
L 3277 1907 
Q 3277 2438 3011 2710 
Q 2746 2982 2266 2982 
Q 1907 2982 1641 2838 
Q 1376 2694 1232 2422 
Q 1088 2150 1088 1766 
L 1088 0 
L 634 0 
L 634 3360 
L 1069 3360 
L 1069 2438 
L 998 2611 
Q 1158 2976 1510 3184 
Q 1862 3392 2349 3392 
z
" transform="scale(0.015625)"/>
        <path id="Montserrat-Regular-62" d="M 2368 -32 
Q 1926 -32 1574 169 
Q 1222 371 1017 755 
Q 813 1139 813 1683 
Q 813 2234 1021 2614 
Q 1229 2995 1581 3193 
Q 1933 3392 2368 3392 
Q 2848 3392 3229 3177 
Q 3610 2963 3827 2579 
Q 4045 2195 4045 1683 
Q 4045 1178 3827 790 
Q 3610 403 3229 185 
Q 2848 -32 2368 -32 
z
M 634 0 
L 634 4749 
L 1088 4749 
L 1088 2368 
L 1024 1690 
L 1069 1011 
L 1069 0 
L 634 0 
z
M 2336 371 
Q 2694 371 2976 534 
Q 3258 698 3424 995 
Q 3590 1293 3590 1683 
Q 3590 2080 3424 2374 
Q 3258 2669 2976 2832 
Q 2694 2995 2336 2995 
Q 1978 2995 1693 2832 
Q 1408 2669 1245 2374 
Q 1082 2080 1082 1683 
Q 1082 1293 1245 995 
Q 1408 698 1693 534 
Q 1978 371 2336 371 
z
" transform="scale(0.015625)"/>
       </defs>
       <use xlink:href="#Montserrat-Regular-52"/>
       <use xlink:href="#Montserrat-Regular-6f" x="72.299988"/>
       <use xlink:href="#Montserrat-Regular-75" x="134.999985"/>
       <use xlink:href="#Montserrat-Regular-6e" x="202.199982"/>
       <use xlink:href="#Montserrat-Regular-64" x="269.799973"/>
       <use xlink:href="#Montserrat-Regular-61" x="337.59996"/>
       <use xlink:href="#Montserrat-Regular-62" x="396.599945"/>
       <use xlink:href="#Montserrat-Regular-6f" x="464.399933"/>
       <use xlink:href="#Montserrat-Regular-75" x="527.09993"/>
       <use xlink:href="#Montserrat-Regular-74" x="594.299927"/>
      </g>
     </g>
    </g>
    <g id="xtick_5">
     <g id="line2d_5">
      <path d="M 375.135488 387.077886 
" style="fill: none; stroke: #000000; stroke-width: 1.5"/>
      <g>
       <use xlink:href="#m88f4291155" x="375.135488" y="387.077886" style="stroke: #333333"/>
      </g>
     </g>
     <g id="text_5">
      <!-- Private Drive -->
      <g style="fill: #4d4d4d" transform="translate(281.399645 493.313177) rotate(-45) scale(0.2 -0.2)">
       <defs>
        <path id="Montserrat-Regular-50" d="M 730 0 
L 730 4480 
L 2406 4480 
Q 2976 4480 3385 4297 
Q 3795 4115 4016 3772 
Q 4237 3430 4237 2944 
Q 4237 2470 4016 2128 
Q 3795 1786 3385 1600 
Q 2976 1414 2406 1414 
L 992 1414 
L 1203 1638 
L 1203 0 
L 730 0 
z
M 1203 1600 
L 992 1830 
L 2394 1830 
Q 3066 1830 3414 2121 
Q 3763 2413 3763 2944 
Q 3763 3482 3414 3776 
Q 3066 4070 2394 4070 
L 992 4070 
L 1203 4294 
L 1203 1600 
z
" transform="scale(0.015625)"/>
        <path id="Montserrat-Regular-69" d="M 634 0 
L 634 3360 
L 1088 3360 
L 1088 0 
L 634 0 
z
M 864 4102 
Q 723 4102 627 4198 
Q 531 4294 531 4429 
Q 531 4563 627 4656 
Q 723 4749 864 4749 
Q 1005 4749 1101 4659 
Q 1197 4570 1197 4435 
Q 1197 4294 1104 4198 
Q 1011 4102 864 4102 
z
" transform="scale(0.015625)"/>
        <path id="Montserrat-Regular-76" d="M 1498 0 
L 6 3360 
L 480 3360 
L 1850 243 
L 1626 243 
L 3014 3360 
L 3462 3360 
L 1965 0 
L 1498 0 
z
" transform="scale(0.015625)"/>
        <path id="Montserrat-Regular-44" d="M 730 0 
L 730 4480 
L 2554 4480 
Q 3270 4480 3811 4195 
Q 4352 3910 4653 3404 
Q 4954 2899 4954 2240 
Q 4954 1581 4653 1075 
Q 4352 570 3811 285 
Q 3270 0 2554 0 
L 730 0 
z
M 1203 410 
L 2528 410 
Q 3123 410 3561 643 
Q 4000 877 4243 1289 
Q 4486 1702 4486 2240 
Q 4486 2784 4243 3193 
Q 4000 3603 3561 3836 
Q 3123 4070 2528 4070 
L 1203 4070 
L 1203 410 
z
" transform="scale(0.015625)"/>
       </defs>
       <use xlink:href="#Montserrat-Regular-50"/>
       <use xlink:href="#Montserrat-Regular-72" x="71.799988"/>
       <use xlink:href="#Montserrat-Regular-69" x="111.899979"/>
       <use xlink:href="#Montserrat-Regular-76" x="138.799973"/>
       <use xlink:href="#Montserrat-Regular-61" x="192.999969"/>
       <use xlink:href="#Montserrat-Regular-74" x="251.999954"/>
       <use xlink:href="#Montserrat-Regular-65" x="292.599945"/>
       <use xlink:href="#Montserrat-Regular-20" x="352.999939"/>
       <use xlink:href="#Montserrat-Regular-44" x="379.199936"/>
       <use xlink:href="#Montserrat-Regular-72" x="461.799927"/>
       <use xlink:href="#Montserrat-Regular-69" x="501.899918"/>
       <use xlink:href="#Montserrat-Regular-76" x="528.799911"/>
       <use xlink:href="#Montserrat-Regular-65" x="582.999908"/>
      </g>
     </g>
    </g>
    <g id="xtick_6">
     <g id="line2d_6">
      <path d="M 431.840213 387.077886 
" style="fill: none; stroke: #000000; stroke-width: 1.5"/>
      <g>
       <use xlink:href="#m88f4291155" x="431.840213" y="387.077886" style="stroke: #333333"/>
      </g>
     </g>
     <g id="text_6">
      <!-- Other Jct -->
      <g style="fill: #4d4d4d" transform="translate(363.224339 468.193209) rotate(-45) scale(0.2 -0.2)">
       <defs>
        <path id="Montserrat-Regular-4f" d="M 2688 -38 
Q 2182 -38 1750 131 
Q 1318 301 1001 611 
Q 685 922 509 1334 
Q 333 1747 333 2240 
Q 333 2733 509 3145 
Q 685 3558 1001 3868 
Q 1318 4179 1747 4348 
Q 2176 4518 2688 4518 
Q 3194 4518 3622 4348 
Q 4051 4179 4368 3872 
Q 4685 3565 4861 3149 
Q 5037 2733 5037 2240 
Q 5037 1747 4861 1331 
Q 4685 915 4368 608 
Q 4051 301 3622 131 
Q 3194 -38 2688 -38 
z
M 2688 384 
Q 3091 384 3433 521 
Q 3776 659 4029 912 
Q 4282 1165 4422 1501 
Q 4563 1837 4563 2240 
Q 4563 2643 4422 2979 
Q 4282 3315 4029 3568 
Q 3776 3821 3433 3958 
Q 3091 4096 2688 4096 
Q 2285 4096 1939 3958 
Q 1594 3821 1341 3568 
Q 1088 3315 944 2979 
Q 800 2643 800 2240 
Q 800 1843 944 1504 
Q 1088 1165 1341 912 
Q 1594 659 1939 521 
Q 2285 384 2688 384 
z
" transform="scale(0.015625)"/>
        <path id="Montserrat-Regular-68" d="M 2349 3392 
Q 2758 3392 3068 3235 
Q 3379 3078 3555 2758 
Q 3731 2438 3731 1952 
L 3731 0 
L 3277 0 
L 3277 1907 
Q 3277 2438 3011 2710 
Q 2746 2982 2266 2982 
Q 1907 2982 1641 2838 
Q 1376 2694 1232 2422 
Q 1088 2150 1088 1766 
L 1088 0 
L 634 0 
L 634 4749 
L 1088 4749 
L 1088 2438 
L 998 2611 
Q 1158 2976 1510 3184 
Q 1862 3392 2349 3392 
z
" transform="scale(0.015625)"/>
       </defs>
       <use xlink:href="#Montserrat-Regular-4f"/>
       <use xlink:href="#Montserrat-Regular-74" x="83.899994"/>
       <use xlink:href="#Montserrat-Regular-68" x="124.499985"/>
       <use xlink:href="#Montserrat-Regular-65" x="192.099976"/>
       <use xlink:href="#Montserrat-Regular-72" x="252.499969"/>
       <use xlink:href="#Montserrat-Regular-20" x="292.59996"/>
       <use xlink:href="#Montserrat-Regular-4a" x="318.799957"/>
       <use xlink:href="#Montserrat-Regular-63" x="368.899948"/>
       <use xlink:href="#Montserrat-Regular-74" x="425.199936"/>
      </g>
     </g>
    </g>
    <g id="xtick_7">
     <g id="line2d_7">
      <path d="M 488.544939 387.077886 
" style="fill: none; stroke: #000000; stroke-width: 1.5"/>
      <g>
       <use xlink:href="#m88f4291155" x="488.544939" y="387.077886" style="stroke: #333333"/>
      </g>
     </g>
     <g id="text_7">
      <!-- Slip Road -->
      <g style="fill: #4d4d4d" transform="translate(419.175554 468.946719) rotate(-45) scale(0.2 -0.2)">
       <defs>
        <path id="Montserrat-Regular-6c" d="M 634 0 
L 634 4749 
L 1088 4749 
L 1088 0 
L 634 0 
z
" transform="scale(0.015625)"/>
        <path id="Montserrat-Regular-70" d="M 2368 -32 
Q 1933 -32 1581 169 
Q 1229 371 1021 752 
Q 813 1133 813 1683 
Q 813 2234 1017 2614 
Q 1222 2995 1574 3193 
Q 1926 3392 2368 3392 
Q 2848 3392 3229 3177 
Q 3610 2963 3827 2576 
Q 4045 2189 4045 1683 
Q 4045 1171 3827 787 
Q 3610 403 3229 185 
Q 2848 -32 2368 -32 
z
M 634 -1242 
L 634 3360 
L 1069 3360 
L 1069 2349 
L 1024 1677 
L 1088 998 
L 1088 -1242 
L 634 -1242 
z
M 2336 371 
Q 2694 371 2976 534 
Q 3258 698 3424 995 
Q 3590 1293 3590 1683 
Q 3590 2074 3424 2368 
Q 3258 2662 2976 2828 
Q 2694 2995 2336 2995 
Q 1978 2995 1693 2828 
Q 1408 2662 1245 2368 
Q 1082 2074 1082 1683 
Q 1082 1293 1245 995 
Q 1408 698 1693 534 
Q 1978 371 2336 371 
z
" transform="scale(0.015625)"/>
       </defs>
       <use xlink:href="#Montserrat-Regular-53"/>
       <use xlink:href="#Montserrat-Regular-6c" x="61.499985"/>
       <use xlink:href="#Montserrat-Regular-69" x="88.399979"/>
       <use xlink:href="#Montserrat-Regular-70" x="115.299973"/>
       <use xlink:href="#Montserrat-Regular-20" x="183.09996"/>
       <use xlink:href="#Montserrat-Regular-52" x="209.299957"/>
       <use xlink:href="#Montserrat-Regular-6f" x="281.599945"/>
       <use xlink:href="#Montserrat-Regular-61" x="344.299942"/>
       <use xlink:href="#Montserrat-Regular-64" x="403.299927"/>
      </g>
     </g>
    </g>
    <g id="xtick_8">
     <g id="line2d_8">
      <path d="M 545.249665 387.077886 
" style="fill: none; stroke: #000000; stroke-width: 1.5"/>
      <g>
       <use xlink:href="#m88f4291155" x="545.249665" y="387.077886" style="stroke: #333333"/>
      </g>
     </g>
     <g id="text_8">
      <!-- Multi-Arm Jct -->
      <g style="fill: #4d4d4d" transform="translate(445.434913 499.392086) rotate(-45) scale(0.2 -0.2)">
       <defs>
        <path id="Montserrat-Regular-4d" d="M 730 0 
L 730 4480 
L 1120 4480 
L 3168 986 
L 2963 986 
L 4992 4480 
L 5382 4480 
L 5382 0 
L 4928 0 
L 4928 3770 
L 5037 3770 
L 3168 570 
L 2944 570 
L 1062 3770 
L 1184 3770 
L 1184 0 
L 730 0 
z
" transform="scale(0.015625)"/>
        <path id="Montserrat-Regular-2d" d="M 384 1536 
L 384 1933 
L 2061 1933 
L 2061 1536 
L 384 1536 
z
" transform="scale(0.015625)"/>
        <path id="Montserrat-Regular-41" d="M 13 0 
L 2061 4480 
L 2528 4480 
L 4576 0 
L 4077 0 
L 2195 4205 
L 2387 4205 
L 506 0 
L 13 0 
z
M 819 1197 
L 960 1581 
L 3565 1581 
L 3706 1197 
L 819 1197 
z
" transform="scale(0.015625)"/>
        <path id="Montserrat-Regular-6d" d="M 4832 3392 
Q 5242 3392 5546 3235 
Q 5850 3078 6019 2758 
Q 6189 2438 6189 1952 
L 6189 0 
L 5734 0 
L 5734 1907 
Q 5734 2438 5481 2710 
Q 5229 2982 4768 2982 
Q 4422 2982 4169 2838 
Q 3917 2694 3779 2422 
Q 3642 2150 3642 1766 
L 3642 0 
L 3187 0 
L 3187 1907 
Q 3187 2438 2931 2710 
Q 2675 2982 2214 2982 
Q 1875 2982 1619 2838 
Q 1363 2694 1225 2422 
Q 1088 2150 1088 1766 
L 1088 0 
L 634 0 
L 634 3360 
L 1069 3360 
L 1069 2451 
L 998 2611 
Q 1152 2976 1494 3184 
Q 1837 3392 2304 3392 
Q 2797 3392 3142 3145 
Q 3488 2899 3590 2406 
L 3411 2477 
Q 3558 2886 3932 3139 
Q 4307 3392 4832 3392 
z
" transform="scale(0.015625)"/>
       </defs>
       <use xlink:href="#Montserrat-Regular-4d"/>
       <use xlink:href="#Montserrat-Regular-75" x="95.499985"/>
       <use xlink:href="#Montserrat-Regular-6c" x="162.699982"/>
       <use xlink:href="#Montserrat-Regular-74" x="189.599976"/>
       <use xlink:href="#Montserrat-Regular-69" x="230.199966"/>
       <use xlink:href="#Montserrat-Regular-2d" x="257.09996"/>
       <use xlink:href="#Montserrat-Regular-41" x="295.299957"/>
       <use xlink:href="#Montserrat-Regular-72" x="366.999939"/>
       <use xlink:href="#Montserrat-Regular-6d" x="407.09993"/>
       <use xlink:href="#Montserrat-Regular-20" x="513.199921"/>
       <use xlink:href="#Montserrat-Regular-4a" x="539.399918"/>
       <use xlink:href="#Montserrat-Regular-63" x="589.499908"/>
       <use xlink:href="#Montserrat-Regular-74" x="645.799896"/>
      </g>
     </g>
    </g>
   </g>
   <g id="matplotlib.axis_2">
    <g id="ytick_1">
     <g id="line2d_9">
      <path d="M 114.29375 370.465255 
" style="fill: none; stroke: #000000; stroke-width: 1.5"/>
      <defs>
       <path id="m4a457e7afc" d="M 0 0 
L -2.75 0 
" style="stroke: #333333"/>
      </defs>
      <g>
       <use xlink:href="#m4a457e7afc" x="114.29375" y="370.465255" style="stroke: #333333"/>
      </g>
     </g>
     <g id="text_9">
      <!-- 0 -->
      <g style="fill: #4d4d4d" transform="translate(96.303125 375.944942) scale(0.2 -0.2)">
       <defs>
        <path id="Montserrat-Regular-30" d="M 2118 -38 
Q 1600 -38 1197 234 
Q 794 506 563 1014 
Q 333 1523 333 2240 
Q 333 2957 563 3465 
Q 794 3974 1197 4246 
Q 1600 4518 2118 4518 
Q 2637 4518 3040 4246 
Q 3443 3974 3676 3465 
Q 3910 2957 3910 2240 
Q 3910 1523 3676 1014 
Q 3443 506 3040 234 
Q 2637 -38 2118 -38 
z
M 2118 384 
Q 2515 384 2809 598 
Q 3104 813 3270 1225 
Q 3437 1638 3437 2240 
Q 3437 2842 3270 3254 
Q 3104 3667 2809 3881 
Q 2515 4096 2118 4096 
Q 1734 4096 1433 3881 
Q 1133 3667 966 3254 
Q 800 2842 800 2240 
Q 800 1638 966 1225 
Q 1133 813 1433 598 
Q 1734 384 2118 384 
z
" transform="scale(0.015625)"/>
       </defs>
       <use xlink:href="#Montserrat-Regular-30"/>
      </g>
     </g>
    </g>
    <g id="ytick_2">
     <g id="line2d_10">
      <path d="M 114.29375 258.944291 
" style="fill: none; stroke: #000000; stroke-width: 1.5"/>
      <g>
       <use xlink:href="#m4a457e7afc" x="114.29375" y="258.944291" style="stroke: #333333"/>
      </g>
     </g>
     <g id="text_10">
      <!-- 500,000 -->
      <g style="fill: #4d4d4d" transform="translate(27.78125 264.423978) scale(0.2 -0.2)">
       <defs>
        <path id="Montserrat-Regular-35" d="M 1747 -38 
Q 1267 -38 832 118 
Q 397 275 141 538 
L 365 902 
Q 576 678 944 531 
Q 1312 384 1741 384 
Q 2310 384 2608 637 
Q 2906 890 2906 1299 
Q 2906 1587 2768 1795 
Q 2630 2003 2304 2118 
Q 1978 2234 1408 2234 
L 454 2234 
L 685 4480 
L 3136 4480 
L 3136 4070 
L 870 4070 
L 1107 4294 
L 909 2413 
L 672 2643 
L 1510 2643 
Q 2189 2643 2598 2476 
Q 3008 2310 3190 2012 
Q 3373 1715 3373 1318 
Q 3373 941 3193 630 
Q 3014 320 2656 141 
Q 2298 -38 1747 -38 
z
" transform="scale(0.015625)"/>
        <path id="Montserrat-Regular-2c" d="M 358 -934 
L 640 250 
L 691 -26 
Q 544 -26 445 70 
Q 346 166 346 320 
Q 346 474 445 570 
Q 544 666 685 666 
Q 832 666 925 563 
Q 1018 461 1018 320 
Q 1018 269 1011 217 
Q 1005 166 985 102 
Q 966 38 934 -51 
L 666 -934 
L 358 -934 
z
" transform="scale(0.015625)"/>
       </defs>
       <use xlink:href="#Montserrat-Regular-35"/>
       <use xlink:href="#Montserrat-Regular-30" x="56.599991"/>
       <use xlink:href="#Montserrat-Regular-30" x="122.799988"/>
       <use xlink:href="#Montserrat-Regular-2c" x="188.999985"/>
       <use xlink:href="#Montserrat-Regular-30" x="210.199982"/>
       <use xlink:href="#Montserrat-Regular-30" x="276.399979"/>
       <use xlink:href="#Montserrat-Regular-30" x="342.599976"/>
      </g>
     </g>
    </g>
    <g id="ytick_3">
     <g id="line2d_11">
      <path d="M 114.29375 147.423327 
" style="fill: none; stroke: #000000; stroke-width: 1.5"/>
      <g>
       <use xlink:href="#m4a457e7afc" x="114.29375" y="147.423327" style="stroke: #333333"/>
      </g>
     </g>
     <g id="text_11">
      <!-- 1,000,000 -->
      <g style="fill: #4d4d4d" transform="translate(14.4 152.903014) scale(0.2 -0.2)">
       <defs>
        <path id="Montserrat-Regular-31" d="M 1114 0 
L 1114 4288 
L 1318 4070 
L 58 4070 
L 58 4480 
L 1574 4480 
L 1574 0 
L 1114 0 
z
" transform="scale(0.015625)"/>
       </defs>
       <use xlink:href="#Montserrat-Regular-31"/>
       <use xlink:href="#Montserrat-Regular-2c" x="36.099991"/>
       <use xlink:href="#Montserrat-Regular-30" x="57.299988"/>
       <use xlink:href="#Montserrat-Regular-30" x="123.499985"/>
       <use xlink:href="#Montserrat-Regular-30" x="189.699982"/>
       <use xlink:href="#Montserrat-Regular-2c" x="255.899979"/>
       <use xlink:href="#Montserrat-Regular-30" x="277.099976"/>
       <use xlink:href="#Montserrat-Regular-30" x="343.299973"/>
       <use xlink:href="#Montserrat-Regular-30" x="409.499969"/>
      </g>
     </g>
    </g>
    <g id="ytick_4">
     <g id="line2d_12">
      <path d="M 114.29375 35.902363 
" style="fill: none; stroke: #000000; stroke-width: 1.5"/>
      <g>
       <use xlink:href="#m4a457e7afc" x="114.29375" y="35.902363" style="stroke: #333333"/>
      </g>
     </g>
     <g id="text_12">
      <!-- 1,500,000 -->
      <g style="fill: #4d4d4d" transform="translate(16.321875 41.38205) scale(0.2 -0.2)">
       <use xlink:href="#Montserrat-Regular-31"/>
       <use xlink:href="#Montserrat-Regular-2c" x="36.099991"/>
       <use xlink:href="#Montserrat-Regular-35" x="57.299988"/>
       <use xlink:href="#Montserrat-Regular-30" x="113.899979"/>
       <use xlink:href="#Montserrat-Regular-30" x="180.099976"/>
       <use xlink:href="#Montserrat-Regular-2c" x="246.299973"/>
       <use xlink:href="#Montserrat-Regular-30" x="267.499969"/>
       <use xlink:href="#Montserrat-Regular-30" x="333.699966"/>
       <use xlink:href="#Montserrat-Regular-30" x="399.899963"/>
      </g>
     </g>
    </g>
    <g id="ytick_5"/>
    <g id="ytick_6"/>
    <g id="ytick_7"/>
   </g>
   <g id="PolyCollection_1">
    <path d="M 122.799459 370.465255 
L 122.799459 102.149161 
L 173.833712 102.149161 
L 173.833712 370.465255 
z
" clip-path="url(#p03a5e3d4c4)" style="fill: #d6d6d6"/>
    <path d="M 122.799459 102.149161 
L 122.799459 45.294435 
L 173.833712 45.294435 
L 173.833712 102.149161 
z
" clip-path="url(#p03a5e3d4c4)" style="fill: #525252"/>
    <path d="M 122.799459 45.294435 
L 122.799459 38.212631 
L 173.833712 38.212631 
L 173.833712 45.294435 
z
" clip-path="url(#p03a5e3d4c4)" style="fill: #a34d4d"/>
    <path d="M 179.504184 370.465255 
L 179.504184 155.409566 
L 230.538438 155.409566 
L 230.538438 370.465255 
z
" clip-path="url(#p03a5e3d4c4)" style="fill: #d6d6d6"/>
    <path d="M 179.504184 155.409566 
L 179.504184 119.334542 
L 230.538438 119.334542 
L 230.538438 155.409566 
z
" clip-path="url(#p03a5e3d4c4)" style="fill: #525252"/>
    <path d="M 179.504184 119.334542 
L 179.504184 117.028288 
L 230.538438 117.028288 
L 230.538438 119.334542 
z
" clip-path="url(#p03a5e3d4c4)" style="fill: #a34d4d"/>
    <path d="M 236.20891 370.465255 
L 236.20891 301.441585 
L 287.243163 301.441585 
L 287.243163 370.465255 
z
" clip-path="url(#p03a5e3d4c4)" style="fill: #d6d6d6"/>
    <path d="M 236.20891 301.441585 
L 236.20891 291.030657 
L 287.243163 291.030657 
L 287.243163 301.441585 
z
" clip-path="url(#p03a5e3d4c4)" style="fill: #525252"/>
    <path d="M 236.20891 291.030657 
L 236.20891 290.390972 
L 287.243163 290.390972 
L 287.243163 291.030657 
z
" clip-path="url(#p03a5e3d4c4)" style="fill: #a34d4d"/>
    <path d="M 292.913636 370.465255 
L 292.913636 301.236832 
L 343.947889 301.236832 
L 343.947889 370.465255 
z
" clip-path="url(#p03a5e3d4c4)" style="fill: #d6d6d6"/>
    <path d="M 292.913636 301.236832 
L 292.913636 293.911689 
L 343.947889 293.911689 
L 343.947889 301.236832 
z
" clip-path="url(#p03a5e3d4c4)" style="fill: #525252"/>
    <path d="M 292.913636 293.911689 
L 292.913636 293.641585 
L 343.947889 293.641585 
L 343.947889 293.911689 
z
" clip-path="url(#p03a5e3d4c4)" style="fill: #a34d4d"/>
    <path d="M 349.618361 370.465255 
L 349.618361 345.546342 
L 400.652614 345.546342 
L 400.652614 370.465255 
z
" clip-path="url(#p03a5e3d4c4)" style="fill: #d6d6d6"/>
    <path d="M 349.618361 345.546342 
L 349.618361 341.328396 
L 400.652614 341.328396 
L 400.652614 345.546342 
z
" clip-path="url(#p03a5e3d4c4)" style="fill: #525252"/>
    <path d="M 349.618361 341.328396 
L 349.618361 341.020821 
L 400.652614 341.020821 
L 400.652614 341.328396 
z
" clip-path="url(#p03a5e3d4c4)" style="fill: #a34d4d"/>
    <path d="M 406.323087 370.465255 
L 406.323087 348.22909 
L 457.35734 348.22909 
L 457.35734 370.465255 
z
" clip-path="url(#p03a5e3d4c4)" style="fill: #d6d6d6"/>
    <path d="M 406.323087 348.22909 
L 406.323087 344.506966 
L 457.35734 344.506966 
L 457.35734 348.22909 
z
" clip-path="url(#p03a5e3d4c4)" style="fill: #525252"/>
    <path d="M 406.323087 344.506966 
L 406.323087 344.254929 
L 457.35734 344.254929 
L 457.35734 344.506966 
z
" clip-path="url(#p03a5e3d4c4)" style="fill: #a34d4d"/>
    <path d="M 463.027813 370.465255 
L 463.027813 359.897082 
L 514.062066 359.897082 
L 514.062066 370.465255 
z
" clip-path="url(#p03a5e3d4c4)" style="fill: #d6d6d6"/>
    <path d="M 463.027813 359.897082 
L 463.027813 358.455339 
L 514.062066 358.455339 
L 514.062066 359.897082 
z
" clip-path="url(#p03a5e3d4c4)" style="fill: #525252"/>
    <path d="M 463.027813 358.455339 
L 463.027813 358.281367 
L 514.062066 358.281367 
L 514.062066 358.455339 
z
" clip-path="url(#p03a5e3d4c4)" style="fill: #a34d4d"/>
    <path d="M 519.732538 370.465255 
L 519.732538 360.94471 
L 570.766791 360.94471 
L 570.766791 370.465255 
z
" clip-path="url(#p03a5e3d4c4)" style="fill: #d6d6d6"/>
    <path d="M 519.732538 360.94471 
L 519.732538 359.546014 
L 570.766791 359.546014 
L 570.766791 360.94471 
z
" clip-path="url(#p03a5e3d4c4)" style="fill: #525252"/>
    <path d="M 519.732538 359.546014 
L 519.732538 359.472857 
L 570.766791 359.472857 
L 570.766791 359.546014 
z
" clip-path="url(#p03a5e3d4c4)" style="fill: #a34d4d"/>
   </g>
   <g id="patch_3">
    <path d="M 114.29375 387.077886 
L 114.29375 21.6 
" style="fill: none; stroke: #000000; stroke-linejoin: miter; stroke-linecap: square"/>
   </g>
   <g id="patch_4">
    <path d="M 114.29375 387.077886 
L 579.2725 387.077886 
" style="fill: none; stroke: #000000; stroke-linejoin: miter; stroke-linecap: square"/>
   </g>
  </g>
  <g id="patch_5">
   <path d="M 600.8725 251.447068 
L 712.8 251.447068 
L 712.8 157.230818 
L 600.8725 157.230818 
z
" style="fill: #ffffff"/>
  </g>
  <g id="text_13">
   <!-- Severity -->
   <g transform="translate(601.0725 185.809256) scale(0.28 -0.28)">
    <defs>
     <path id="Montserrat-Regular-79" d="M 659 -1274 
Q 422 -1274 208 -1197 
Q -6 -1120 -160 -966 
L 51 -627 
Q 179 -749 329 -816 
Q 480 -883 666 -883 
Q 890 -883 1053 -758 
Q 1216 -634 1363 -320 
L 1581 173 
L 1632 243 
L 3014 3360 
L 3462 3360 
L 1779 -403 
Q 1638 -730 1468 -922 
Q 1299 -1114 1100 -1194 
Q 902 -1274 659 -1274 
z
M 1555 -96 
L 6 3360 
L 480 3360 
L 1850 275 
L 1555 -96 
z
" transform="scale(0.015625)"/>
    </defs>
    <use xlink:href="#Montserrat-Regular-53"/>
    <use xlink:href="#Montserrat-Regular-65" x="61.499985"/>
    <use xlink:href="#Montserrat-Regular-76" x="121.899979"/>
    <use xlink:href="#Montserrat-Regular-65" x="176.099976"/>
    <use xlink:href="#Montserrat-Regular-72" x="236.499969"/>
    <use xlink:href="#Montserrat-Regular-69" x="276.59996"/>
    <use xlink:href="#Montserrat-Regular-74" x="303.499954"/>
    <use xlink:href="#Montserrat-Regular-79" x="344.099945"/>
   </g>
  </g>
  <g id="patch_6">
   <path d="M 601.0725 208.262381 
L 616.9125 208.262381 
L 616.9125 192.422381 
L 601.0725 192.422381 
L 601.0725 208.262381 
z
" clip-path="url(#p2c7f47672f)" style="fill: none"/>
  </g>
  <g id="patch_7">
   <path d="M 601.0725 208.262381 
L 616.9125 208.262381 
L 616.9125 192.422381 
L 601.0725 192.422381 
z
" clip-path="url(#p2c7f47672f)" style="fill: #a34d4d"/>
  </g>
  <g id="text_14">
   <!-- Fatal -->
   <g transform="translate(619.9125 205.822068) scale(0.2 -0.2)">
    <defs>
     <path id="Montserrat-Regular-46" d="M 1152 2310 
L 3520 2310 
L 3520 1901 
L 1152 1901 
L 1152 2310 
z
M 1203 0 
L 730 0 
L 730 4480 
L 3802 4480 
L 3802 4070 
L 1203 4070 
L 1203 0 
z
" transform="scale(0.015625)"/>
    </defs>
    <use xlink:href="#Montserrat-Regular-46"/>
    <use xlink:href="#Montserrat-Regular-61" x="63.299988"/>
    <use xlink:href="#Montserrat-Regular-74" x="122.299973"/>
    <use xlink:href="#Montserrat-Regular-61" x="162.899963"/>
    <use xlink:href="#Montserrat-Regular-6c" x="221.899948"/>
   </g>
  </g>
  <g id="patch_8">
   <path d="M 601.0725 228.984256 
L 616.9125 228.984256 
L 616.9125 213.144256 
L 601.0725 213.144256 
L 601.0725 228.984256 
z
" clip-path="url(#p82455759e4)" style="fill: none"/>
  </g>
  <g id="patch_9">
   <path d="M 601.0725 228.984256 
L 616.9125 228.984256 
L 616.9125 213.144256 
L 601.0725 213.144256 
z
" clip-path="url(#p82455759e4)" style="fill: #525252"/>
  </g>
  <g id="text_15">
   <!-- Serious -->
   <g transform="translate(619.9125 226.543943) scale(0.2 -0.2)">
    <use xlink:href="#Montserrat-Regular-53"/>
    <use xlink:href="#Montserrat-Regular-65" x="61.499985"/>
    <use xlink:href="#Montserrat-Regular-72" x="121.899979"/>
    <use xlink:href="#Montserrat-Regular-69" x="161.999969"/>
    <use xlink:href="#Montserrat-Regular-6f" x="188.899963"/>
    <use xlink:href="#Montserrat-Regular-75" x="251.59996"/>
    <use xlink:href="#Montserrat-Regular-73" x="318.799957"/>
   </g>
  </g>
  <g id="patch_10">
   <path d="M 601.0725 249.756131 
L 616.9125 249.756131 
L 616.9125 233.916131 
L 601.0725 233.916131 
L 601.0725 249.756131 
z
" clip-path="url(#pd1f0c4ccd1)" style="fill: none"/>
  </g>
  <g id="patch_11">
   <path d="M 601.0725 249.756131 
L 616.9125 249.756131 
L 616.9125 233.916131 
L 601.0725 233.916131 
z
" clip-path="url(#pd1f0c4ccd1)" style="fill: #d6d6d6"/>
  </g>
  <g id="text_16">
   <!-- Slight -->
   <g transform="translate(619.9125 247.265818) scale(0.2 -0.2)">
    <use xlink:href="#Montserrat-Regular-53"/>
    <use xlink:href="#Montserrat-Regular-6c" x="61.499985"/>
    <use xlink:href="#Montserrat-Regular-69" x="88.399979"/>
    <use xlink:href="#Montserrat-Regular-67" x="115.299973"/>
    <use xlink:href="#Montserrat-Regular-68" x="183.799957"/>
    <use xlink:href="#Montserrat-Regular-74" x="251.399948"/>
   </g>
  </g>
 </g>
 <defs>
  <clipPath id="p03a5e3d4c4">
   <rect x="114.29375" y="21.6" width="464.97875" height="365.477886"/>
  </clipPath>
  <clipPath id="p2c7f47672f">
   <path d="M 601.0725 208.262381 
L 601.0725 192.422381 
L 616.9125 192.422381 
L 616.9125 208.262381 
"/>
  </clipPath>
  <clipPath id="p82455759e4">
   <path d="M 601.0725 228.984256 
L 601.0725 213.144256 
L 616.9125 213.144256 
L 616.9125 228.984256 
"/>
  </clipPath>
  <clipPath id="pd1f0c4ccd1">
   <path d="M 601.0725 249.756131 
L 601.0725 233.916131 
L 616.9125 233.916131 
L 616.9125 249.756131 
"/>
  </clipPath>
 </defs>
</svg>
